<svg width="14" height="16" viewBox="0 0 14 16" fill="none" xmlns="http://www.w3.org/2000/svg">
<path d="M10.3334 9.33332C10.3334 9.51013 10.2632 9.6797 10.1382 9.80472C10.0131 9.92975 9.84358 9.99998 9.66677 9.99998H4.33343C4.15662 9.99998 3.98705 9.92975 3.86203 9.80472C3.737 9.6797 3.66677 9.51013 3.66677 9.33332C3.66677 9.15651 3.737 8.98694 3.86203 8.86191C3.98705 8.73689 4.15662 8.66665 4.33343 8.66665H9.66677C9.84358 8.66665 10.0131 8.73689 10.1382 8.86191C10.2632 8.98694 10.3334 9.15651 10.3334 9.33332ZM7.66677 11.3333H4.33343C4.15662 11.3333 3.98705 11.4036 3.86203 11.5286C3.737 11.6536 3.66677 11.8232 3.66677 12C3.66677 12.1768 3.737 12.3464 3.86203 12.4714C3.98705 12.5964 4.15662 12.6667 4.33343 12.6667H7.66677C7.84358 12.6667 8.01315 12.5964 8.13817 12.4714C8.2632 12.3464 8.33343 12.1768 8.33343 12C8.33343 11.8232 8.2632 11.6536 8.13817 11.5286C8.01315 11.4036 7.84358 11.3333 7.66677 11.3333ZM13.6668 6.98998V12.6667C13.6657 13.5504 13.3142 14.3976 12.6893 15.0225C12.0644 15.6474 11.2172 15.9989 10.3334 16H3.66677C2.78304 15.9989 1.93581 15.6474 1.31091 15.0225C0.686021 14.3976 0.334492 13.5504 0.333433 12.6667V3.33332C0.334492 2.44959 0.686021 1.60236 1.31091 0.977465C1.93581 0.352573 2.78304 0.00104342 3.66677 -1.51518e-05H6.67677C7.28985 -0.0015931 7.89716 0.118377 8.46358 0.352958C9.03001 0.587539 9.54432 0.932077 9.97677 1.36665L12.2994 3.69065C12.7343 4.12281 13.079 4.63696 13.3137 5.2033C13.5484 5.76965 13.6684 6.37693 13.6668 6.98998ZM9.0341 2.30932C8.82429 2.10609 8.58872 1.93127 8.33343 1.78932V4.66665C8.33343 4.84346 8.40367 5.01303 8.5287 5.13806C8.65372 5.26308 8.82329 5.33332 9.0001 5.33332H11.8774C11.7354 5.07811 11.5603 4.84275 11.3568 4.63332L9.0341 2.30932ZM12.3334 6.98998C12.3334 6.87998 12.3121 6.77465 12.3021 6.66665H9.0001C8.46967 6.66665 7.96096 6.45594 7.58589 6.08087C7.21081 5.70579 7.0001 5.19708 7.0001 4.66665V1.36465C6.8921 1.35465 6.7861 1.33332 6.67677 1.33332H3.66677C3.13633 1.33332 2.62763 1.54403 2.25255 1.9191C1.87748 2.29418 1.66677 2.80289 1.66677 3.33332V12.6667C1.66677 13.1971 1.87748 13.7058 2.25255 14.0809C2.62763 14.4559 3.13633 14.6667 3.66677 14.6667H10.3334C10.8639 14.6667 11.3726 14.4559 11.7476 14.0809C12.1227 13.7058 12.3334 13.1971 12.3334 12.6667V6.98998Z" fill="white"/>
</svg>
